<?xml version="1.0" encoding="UTF-8" standalone="no"?>
<!DOCTYPE svg PUBLIC "-//W3C//DTD SVG 1.1//EN" "http://www.w3.org/Graphics/SVG/1.1/DTD/svg11.dtd">
<svg version="1.1" xmlns="http://www.w3.org/2000/svg" xmlns:xlink="http://www.w3.org/1999/xlink" preserveAspectRatio="xMidYMid meet" viewBox="0 0 640 640" width="640" height="640"><defs><path d="M536.88 57.99L537.56 58.05L538.22 58.15L538.88 58.27L539.52 58.42L540.16 58.59L540.79 58.78L541.4 59L542 59.24L542.6 59.51L543.18 59.79L543.74 60.1L544.3 60.43L544.84 60.78L545.36 61.15L545.87 61.54L546.36 61.94L546.84 62.37L547.3 62.81L547.75 63.27L548.17 63.75L548.58 64.25L548.97 64.75L549.34 65.28L549.69 65.82L550.02 66.37L550.32 66.94L550.61 67.52L550.87 68.11L551.12 68.71L551.33 69.33L551.53 69.96L551.7 70.59L551.85 71.24L551.97 71.89L552.06 72.56L552.13 73.23L552.17 73.91L552.18 74.6L552.17 75.28L552.13 75.96L552.06 76.64L551.97 77.3L551.85 77.96L551.7 78.6L551.53 79.24L551.33 79.87L551.12 80.48L550.87 81.09L550.61 81.68L550.32 82.26L550.02 82.82L549.69 83.38L549.34 83.92L548.97 84.44L548.58 84.95L548.17 85.44L547.75 85.92L547.3 86.38L546.84 86.83L546.36 87.25L545.87 87.66L545.36 88.05L544.84 88.42L544.3 88.77L543.74 89.1L543.18 89.4L542.6 89.69L542 89.95L541.4 90.2L540.79 90.41L540.16 90.61L539.52 90.78L538.88 90.93L538.22 91.05L537.56 91.14L536.88 91.21L536.2 91.25L535.52 91.26L496.9 91.26L496.9 518.16L496.88 518.85L496.84 519.53L496.77 520.2L496.68 520.86L496.56 521.52L496.41 522.17L496.24 522.8L496.05 523.43L495.83 524.04L495.59 524.65L495.32 525.24L495.04 525.82L494.73 526.39L494.4 526.94L494.05 527.48L493.68 528L493.29 528.51L492.88 529.01L492.46 529.49L492.01 529.95L491.55 530.39L491.08 530.82L490.58 531.22L490.07 531.61L489.55 531.98L489.01 532.33L488.46 532.66L487.89 532.97L487.31 533.25L486.72 533.52L486.11 533.76L485.5 533.98L484.87 534.17L484.24 534.34L483.59 534.49L482.93 534.61L482.27 534.7L481.6 534.77L480.92 534.81L480.23 534.83L479.54 534.81L478.86 534.77L478.19 534.7L477.53 534.61L476.87 534.49L476.22 534.34L475.59 534.17L474.96 533.98L474.35 533.76L473.74 533.52L473.15 533.25L472.57 532.97L472 532.66L471.45 532.33L470.91 531.98L470.39 531.61L469.88 531.22L469.38 530.82L468.91 530.39L468.44 529.95L468 529.49L467.58 529.01L467.17 528.51L466.78 528L466.41 527.48L466.06 526.94L465.73 526.39L465.42 525.82L465.14 525.24L464.87 524.65L464.63 524.04L464.41 523.43L464.22 522.8L464.05 522.17L463.9 521.52L463.78 520.86L463.69 520.2L463.62 519.53L463.58 518.85L463.56 518.16L463.56 444.17L463.22 443.96L462.67 443.58L462.14 443.18L461.61 442.75L461.1 442.3L460.61 441.82L329.43 310.64L353 287.07L463.56 397.64L463.56 157.65L183.79 437.42L183.79 518.16L183.78 518.85L183.74 519.53L183.67 520.2L183.57 520.86L183.45 521.52L183.31 522.17L183.14 522.8L182.94 523.43L182.72 524.04L182.48 524.65L182.22 525.24L181.93 525.82L181.62 526.39L181.3 526.94L180.95 527.48L180.58 528L180.19 528.51L179.78 529.01L179.36 529.49L178.91 529.95L178.45 530.39L177.97 530.82L177.48 531.22L176.97 531.61L176.44 531.98L175.91 532.33L175.35 532.66L174.79 532.97L174.21 533.25L173.61 533.52L173.01 533.76L172.39 533.98L171.77 534.17L171.13 534.34L170.49 534.49L169.83 534.61L169.17 534.7L168.49 534.77L167.81 534.81L167.13 534.83L166.44 534.81L165.76 534.77L165.09 534.7L164.42 534.61L163.77 534.49L163.12 534.34L162.48 534.17L161.86 533.98L161.24 533.76L160.64 533.52L160.05 533.25L159.47 532.97L158.9 532.66L158.35 532.33L157.81 531.98L157.28 531.61L156.77 531.22L156.28 530.82L155.8 530.39L155.34 529.95L154.9 529.49L154.47 529.01L154.06 528.51L153.68 528L153.31 527.48L152.96 526.94L152.63 526.39L152.32 525.82L152.03 525.24L151.77 524.65L151.53 524.04L151.31 523.43L151.11 522.8L150.94 522.17L150.8 521.52L150.68 520.86L150.58 520.2L150.52 519.53L150.47 518.85L150.46 518.16L150.46 91.26L104.48 91.26L103.8 91.25L103.12 91.21L102.44 91.14L101.78 91.05L101.12 90.93L100.48 90.78L99.84 90.61L99.21 90.41L98.6 90.2L98 89.95L97.4 89.69L96.82 89.4L96.26 89.1L95.7 88.77L95.16 88.42L94.64 88.05L94.13 87.66L93.64 87.25L93.16 86.83L92.7 86.38L92.25 85.92L91.83 85.44L91.42 84.95L91.03 84.44L90.66 83.92L90.31 83.38L89.98 82.82L89.68 82.26L89.39 81.68L89.13 81.09L88.88 80.48L88.67 79.87L88.47 79.24L88.3 78.6L88.15 77.96L88.03 77.3L87.94 76.64L87.87 75.96L87.83 75.28L87.82 74.6L87.83 73.91L87.87 73.23L87.94 72.56L88.03 71.89L88.15 71.24L88.3 70.59L88.47 69.96L88.67 69.33L88.88 68.71L89.13 68.11L89.39 67.52L89.68 66.94L89.98 66.37L90.31 65.82L90.66 65.28L91.03 64.75L91.42 64.25L91.83 63.75L92.25 63.27L92.7 62.81L93.16 62.37L93.64 61.94L94.13 61.54L94.64 61.15L95.16 60.78L95.7 60.43L96.26 60.1L96.82 59.79L97.4 59.51L98 59.24L98.6 59L99.21 58.78L99.84 58.59L100.48 58.42L101.12 58.27L101.78 58.15L102.44 58.05L103.12 57.99L103.8 57.94L104.48 57.93L535.52 57.93L536.2 57.94L536.88 57.99ZM183.79 117.87L310.57 244.65L287 268.22L183.79 165.01L183.79 390.28L460.61 113.46L461.1 112.99L461.61 112.54L462.14 112.11L462.67 111.71L463.22 111.33L463.56 111.11L463.56 91.26L183.79 91.26L183.79 117.87Z" id="a7tn7f4tL"></path></defs><g><g><g><use xlink:href="#a7tn7f4tL" opacity="0.1" fill="#000000" fill-opacity="1"></use></g></g></g></svg>